ffmpeg started on 2025-05-06 at 09:47:40
Report written to "D:\Convert\FFMetrics\reports\psnr_report-6.txt"
Log level: 32
Command line:
ffmpeg -hide_banner -nostdin -i "G:\\\xc0\xed\xe8\xec\xe5\\\xce\xed\xe3\xee\xe8\xed\xe3\xe8\\!_35_\xcb\xe5\xf2\xee_2024\\JamClub\\\xc1\xe0\xf1\xed\xff\\[JAM_CLUB]_The_Fable_13_[1080p][RUS][DUB]_HEVC.mkv" -i "G:\\\xc0\xed\xe8\xec\xe5\\\xce\xed\xe3\xee\xe8\xed\xe3\xe8\\!_35_\xcb\xe5\xf2\xee_2024\\JamClub\\\xc1\xe0\xf1\xed\xff\\[JAM_CLUB]_The_Fable_13_[1080p][RUS][DUB].mp4" -lavfi "[0:v]settb=AVTB,setpts=PTS-STARTPTS,format=pix_fmts=yuv420p10,fps=24000/1001,scale=1920:1080:flags=bicubic[main];[1:v]settb=AVTB,setpts=PTS-STARTPTS,format=pix_fmts=yuv420p,fps=24000/1001,scale=1920:1080:flags=bicubic[ref];[main][ref]psnr=eof_action=endall:stats_file='D\\:/Convert/FFMetrics/logs/psnr_logfile-6.txt'" -f null -
Input #0, matroska,webm, from 'G:\Аниме\Онгоинги\!_35_Лето_2024\JamClub\Басня\[JAM_CLUB]_The_Fable_13_[1080p][RUS][DUB]_HEVC.mkv':
  Metadata:
    COMPATIBLE_BRANDS: isomiso2avc1mp41
    MAJOR_BRAND     : isom
    MINOR_VERSION   : 512
    ENCODER         : Lavf61.7.100
  Duration: 00:23:14.33, start: -0.001000, bitrate: 901 kb/s
  Stream #0:0: Video: hevc (Main 10), yuv420p10le(tv, bt709, progressive), 1920x1080 [SAR 1:1 DAR 16:9], 23.98 fps, 23.98 tbr, 1k tbn (default)
      Metadata:
        HANDLER_NAME    : VideoHandler
        VENDOR_ID       : [0][0][0][0]
        ENCODER         : Lavc61.19.100 libx265
        BPS             : 702067
        DURATION        : 00:23:14.184708333
        NUMBER_OF_FRAMES: 33427
        NUMBER_OF_BYTES : 122351467
        _STATISTICS_WRITING_APP: mkvpropedit v66.0.0 ('Josie') 64-bit
        _STATISTICS_WRITING_DATE_UTC: 2025-05-05 14:22:16
        _STATISTICS_TAGS: BPS DURATION NUMBER_OF_FRAMES NUMBER_OF_BYTES
  Stream #0:1(eng): Audio: aac (LC), 48000 Hz, stereo, fltp (default)
      Metadata:
        HANDLER_NAME    : SoundHandler
        VENDOR_ID       : [0][0][0][0]
        ENCODER         : Lavc61.19.100 aac
        BPS             : 195942
        DURATION        : 00:23:14.285000000
        NUMBER_OF_FRAMES: 65358
        NUMBER_OF_BYTES : 34149972
        _STATISTICS_WRITING_APP: mkvpropedit v66.0.0 ('Josie') 64-bit
        _STATISTICS_WRITING_DATE_UTC: 2025-05-05 14:22:16
        _STATISTICS_TAGS: BPS DURATION NUMBER_OF_FRAMES NUMBER_OF_BYTES
Input #1, mov,mp4,m4a,3gp,3g2,mj2, from 'G:\Аниме\Онгоинги\!_35_Лето_2024\JamClub\Басня\[JAM_CLUB]_The_Fable_13_[1080p][RUS][DUB].mp4':
  Metadata:
    major_brand     : isom
    minor_version   : 512
    compatible_brands: isomiso2avc1mp41
    encoder         : Lavf60.16.100
  Duration: 00:23:14.31, start: 0.000000, bitrate: 3464 kb/s
  Stream #1:0[0x1](und): Video: h264 (High) (avc1 / 0x31637661), yuv420p(progressive), 1920x1080, 3266 kb/s, 23.98 fps, 23.98 tbr, 90k tbn (default)
      Metadata:
        handler_name    : VideoHandler
        vendor_id       : [0][0][0][0]
  Stream #1:1[0x2](eng): Audio: aac (LC) (mp4a / 0x6134706D), 48000 Hz, stereo, fltp, 191 kb/s (default)
      Metadata:
        handler_name    : SoundHandler
        vendor_id       : [0][0][0][0]
Stream mapping:
  Stream #0:0 (hevc) -> settb:default
  Stream #1:0 (h264) -> settb:default
  psnr:default -> Stream #0:0 (wrapped_avframe)
  Stream #0:1 -> #0:1 (aac (native) -> pcm_s16le (native))
Output #0, null, to 'pipe:':
  Metadata:
    COMPATIBLE_BRANDS: isomiso2avc1mp41
    MAJOR_BRAND     : isom
    MINOR_VERSION   : 512
    encoder         : Lavf61.7.100
  Stream #0:0: Video: wrapped_avframe, yuv420p10le(tv, bt709, progressive), 1920x1080 [SAR 1:1 DAR 16:9], q=2-31, 200 kb/s, 23.98 fps, 23.98 tbn
      Metadata:
        encoder         : Lavc61.19.100 wrapped_avframe
  Stream #0:1(eng): Audio: pcm_s16le, 48000 Hz, stereo, s16, 1536 kb/s (default)
      Metadata:
        HANDLER_NAME    : SoundHandler
        VENDOR_ID       : [0][0][0][0]
        _STATISTICS_TAGS: BPS DURATION NUMBER_OF_FRAMES NUMBER_OF_BYTES
        BPS             : 195942
        DURATION        : 00:23:14.285000000
        NUMBER_OF_FRAMES: 65358
        NUMBER_OF_BYTES : 34149972
        _STATISTICS_WRITING_APP: mkvpropedit v66.0.0 ('Josie') 64-bit
        _STATISTICS_WRITING_DATE_UTC: 2025-05-05 14:22:16
        encoder         : Lavc61.19.100 pcm_s16le
frame=  119 fps=0.0 q=-0.0 size=N/A time=00:00:04.96 bitrate=N/A speed=9.58x    frame=  285 fps=274 q=-0.0 size=N/A time=00:00:11.88 bitrate=N/A speed=11.4x    frame=  477 fps=308 q=-0.0 size=N/A time=00:00:19.89 bitrate=N/A speed=12.9x    frame=  761 fps=367 q=-0.0 size=N/A time=00:00:31.74 bitrate=N/A speed=15.3x    frame= 1000 fps=388 q=-0.0 size=N/A time=00:00:41.70 bitrate=N/A speed=16.2x    frame= 1246 fps=402 q=-0.0 size=N/A time=00:00:51.96 bitrate=N/A speed=16.8x    frame= 1511 fps=419 q=-0.0 size=N/A time=00:01:03.02 bitrate=N/A speed=17.5x    frame= 1786 fps=433 q=-0.0 size=N/A time=00:01:14.49 bitrate=N/A speed=18.1x    frame= 2056 fps=442 q=-0.0 size=N/A time=00:01:25.75 bitrate=N/A speed=18.4x    frame= 2282 fps=442 q=-0.0 size=N/A time=00:01:35.17 bitrate=N/A speed=18.4x    frame= 2493 fps=439 q=-0.0 size=N/A time=00:01:43.97 bitrate=N/A speed=18.3x    frame= 2711 fps=438 q=-0.0 size=N/A time=00:01:53.07 bitrate=N/A speed=18.3x    frame= 2928 fps=437 q=-0.0 size=N/A time=00:02:02.12 bitrate=N/A speed=18.2x    frame= 3162 fps=438 q=-0.0 size=N/A time=00:02:11.88 bitrate=N/A speed=18.3x    frame= 3414 fps=441 q=-0.0 size=N/A time=00:02:22.39 bitrate=N/A speed=18.4x    frame= 3652 fps=443 q=-0.0 size=N/A time=00:02:32.31 bitrate=N/A speed=18.5x    frame= 3903 fps=445 q=-0.0 size=N/A time=00:02:42.78 bitrate=N/A speed=18.6x    frame= 4150 fps=447 q=-0.0 size=N/A time=00:02:53.08 bitrate=N/A speed=18.6x    frame= 4395 fps=449 q=-0.0 size=N/A time=00:03:03.30 bitrate=N/A speed=18.7x    frame= 4666 fps=452 q=-0.0 size=N/A time=00:03:14.61 bitrate=N/A speed=18.9x    frame= 4941 fps=456 q=-0.0 size=N/A time=00:03:26.08 bitrate=N/A speed=  19x    frame= 5231 fps=460 q=-0.0 size=N/A time=00:03:38.17 bitrate=N/A speed=19.2x    frame= 5496 fps=463 q=-0.0 size=N/A time=00:03:49.22 bitrate=N/A speed=19.3x    frame= 5778 fps=466 q=-0.0 size=N/A time=00:04:00.99 bitrate=N/A speed=19.4x    frame= 6054 fps=469 q=-0.0 size=N/A time=00:04:12.50 bitrate=N/A speed=19.6x    frame= 6343 fps=472 q=-0.0 size=N/A time=00:04:24.55 bitrate=N/A speed=19.7x    frame= 6604 fps=474 q=-0.0 size=N/A time=00:04:35.44 bitrate=N/A speed=19.8x    frame= 6873 fps=475 q=-0.0 size=N/A time=00:04:46.66 bitrate=N/A speed=19.8x    frame= 7140 fps=477 q=-0.0 size=N/A time=00:04:57.79 bitrate=N/A speed=19.9x    frame= 7413 fps=479 q=-0.0 size=N/A time=00:05:09.18 bitrate=N/A speed=  20x    frame= 7687 fps=481 q=-0.0 size=N/A time=00:05:20.61 bitrate=N/A speed=  20x    frame= 7966 fps=482 q=-0.0 size=N/A time=00:05:32.29 bitrate=N/A speed=20.1x    frame= 8225 fps=483 q=-0.0 size=N/A time=00:05:43.05 bitrate=N/A speed=20.1x    frame= 8490 fps=484 q=-0.0 size=N/A time=00:05:54.10 bitrate=N/A speed=20.2x    frame= 8753 fps=485 q=-0.0 size=N/A time=00:06:05.07 bitrate=N/A speed=20.2x    frame= 9009 fps=485 q=-0.0 size=N/A time=00:06:15.75 bitrate=N/A speed=20.2x    frame= 9254 fps=485 q=-0.0 size=N/A time=00:06:25.96 bitrate=N/A speed=20.2x    frame= 9509 fps=485 q=-0.0 size=N/A time=00:06:36.60 bitrate=N/A speed=20.2x    frame= 9778 fps=486 q=-0.0 size=N/A time=00:06:47.82 bitrate=N/A speed=20.3x    frame=10050 fps=487 q=-0.0 size=N/A time=00:06:59.16 bitrate=N/A speed=20.3x    frame=10307 fps=487 q=-0.0 size=N/A time=00:07:09.88 bitrate=N/A speed=20.3x    frame=10572 fps=488 q=-0.0 size=N/A time=00:07:20.94 bitrate=N/A speed=20.3x    frame=10829 fps=488 q=-0.0 size=N/A time=00:07:31.65 bitrate=N/A speed=20.4x    frame=11100 fps=489 q=-0.0 size=N/A time=00:07:42.96 bitrate=N/A speed=20.4x    frame=11376 fps=490 q=-0.0 size=N/A time=00:07:54.47 bitrate=N/A speed=20.4x    frame=11646 fps=491 q=-0.0 size=N/A time=00:08:05.73 bitrate=N/A speed=20.5x    frame=11918 fps=491 q=-0.0 size=N/A time=00:08:17.07 bitrate=N/A speed=20.5x    frame=12166 fps=491 q=-0.0 size=N/A time=00:08:27.42 bitrate=N/A speed=20.5x    frame=12411 fps=491 q=-0.0 size=N/A time=00:08:37.64 bitrate=N/A speed=20.5x    frame=12676 fps=491 q=-0.0 size=N/A time=00:08:48.69 bitrate=N/A speed=20.5x    frame=12945 fps=492 q=-0.0 size=N/A time=00:08:59.91 bitrate=N/A speed=20.5x    frame=13210 fps=492 q=-0.0 size=N/A time=00:09:10.96 bitrate=N/A speed=20.5x    frame=13485 fps=493 q=-0.0 size=N/A time=00:09:22.43 bitrate=N/A speed=20.6x    frame=13751 fps=493 q=-0.0 size=N/A time=00:09:33.53 bitrate=N/A speed=20.6x    frame=14017 fps=494 q=-0.0 size=N/A time=00:09:44.62 bitrate=N/A speed=20.6x    frame=14287 fps=494 q=-0.0 size=N/A time=00:09:55.88 bitrate=N/A speed=20.6x    frame=14556 fps=495 q=-0.0 size=N/A time=00:10:07.10 bitrate=N/A speed=20.6x    frame=14819 fps=495 q=-0.0 size=N/A time=00:10:18.07 bitrate=N/A speed=20.7x    frame=15103 fps=496 q=-0.0 size=N/A time=00:10:29.92 bitrate=N/A speed=20.7x    frame=15382 fps=497 q=-0.0 size=N/A time=00:10:41.55 bitrate=N/A speed=20.7x    frame=15637 fps=497 q=-0.0 size=N/A time=00:10:52.19 bitrate=N/A speed=20.7x    frame=15917 fps=497 q=-0.0 size=N/A time=00:11:03.87 bitrate=N/A speed=20.7x    frame=16182 fps=498 q=-0.0 size=N/A time=00:11:14.92 bitrate=N/A speed=20.8x    frame=16420 fps=497 q=-0.0 size=N/A time=00:11:24.85 bitrate=N/A speed=20.7x    frame=16659 fps=497 q=-0.0 size=N/A time=00:11:34.81 bitrate=N/A speed=20.7x    frame=16896 fps=496 q=-0.0 size=N/A time=00:11:44.70 bitrate=N/A speed=20.7x    frame=17152 fps=496 q=-0.0 size=N/A time=00:11:55.38 bitrate=N/A speed=20.7x    frame=17421 fps=496 q=-0.0 size=N/A time=00:12:06.60 bitrate=N/A speed=20.7x    frame=17681 fps=497 q=-0.0 size=N/A time=00:12:17.44 bitrate=N/A speed=20.7x    frame=17935 fps=496 q=-0.0 size=N/A time=00:12:28.03 bitrate=N/A speed=20.7x    frame=18194 fps=497 q=-0.0 size=N/A time=00:12:38.84 bitrate=N/A speed=20.7x    frame=18459 fps=497 q=-0.0 size=N/A time=00:12:49.89 bitrate=N/A speed=20.7x    frame=18691 fps=496 q=-0.0 size=N/A time=00:12:59.57 bitrate=N/A speed=20.7x    frame=18939 fps=496 q=-0.0 size=N/A time=00:13:09.91 bitrate=N/A speed=20.7x    frame=19203 fps=496 q=-0.0 size=N/A time=00:13:20.92 bitrate=N/A speed=20.7x    frame=19489 fps=497 q=-0.0 size=N/A time=00:13:32.85 bitrate=N/A speed=20.7x    frame=19774 fps=498 q=-0.0 size=N/A time=00:13:44.74 bitrate=N/A speed=20.8x    frame=20050 fps=498 q=-0.0 size=N/A time=00:13:56.25 bitrate=N/A speed=20.8x    frame=20317 fps=498 q=-0.0 size=N/A time=00:14:07.38 bitrate=N/A speed=20.8x    frame=20604 fps=499 q=-0.0 size=N/A time=00:14:19.35 bitrate=N/A speed=20.8x    frame=20870 fps=499 q=-0.0 size=N/A time=00:14:30.45 bitrate=N/A speed=20.8x    frame=21150 fps=500 q=-0.0 size=N/A time=00:14:42.13 bitrate=N/A speed=20.8x    frame=21425 fps=500 q=-0.0 size=N/A time=00:14:53.60 bitrate=N/A speed=20.9x    frame=21702 fps=501 q=-0.0 size=N/A time=00:15:05.15 bitrate=N/A speed=20.9x    frame=21961 fps=501 q=-0.0 size=N/A time=00:15:15.95 bitrate=N/A speed=20.9x    frame=22193 fps=500 q=-0.0 size=N/A time=00:15:25.63 bitrate=N/A speed=20.9x    frame=22450 fps=500 q=-0.0 size=N/A time=00:15:36.35 bitrate=N/A speed=20.8x    frame=22729 fps=500 q=-0.0 size=N/A time=00:15:47.98 bitrate=N/A speed=20.9x    frame=22972 fps=500 q=-0.0 size=N/A time=00:15:58.12 bitrate=N/A speed=20.9x    frame=23219 fps=500 q=-0.0 size=N/A time=00:16:08.42 bitrate=N/A speed=20.8x    frame=23454 fps=499 q=-0.0 size=N/A time=00:16:18.22 bitrate=N/A speed=20.8x    frame=23654 fps=498 q=-0.0 size=N/A time=00:16:26.56 bitrate=N/A speed=20.8x    frame=23891 fps=498 q=-0.0 size=N/A time=00:16:36.45 bitrate=N/A speed=20.8x    frame=24143 fps=498 q=-0.0 size=N/A time=00:16:46.96 bitrate=N/A speed=20.8x    frame=24413 fps=498 q=-0.0 size=N/A time=00:16:58.22 bitrate=N/A speed=20.8x    frame=24670 fps=498 q=-0.0 size=N/A time=00:17:08.94 bitrate=N/A speed=20.8x    frame=24943 fps=498 q=-0.0 size=N/A time=00:17:20.33 bitrate=N/A speed=20.8x    frame=25201 fps=498 q=-0.0 size=N/A time=00:17:31.09 bitrate=N/A speed=20.8x    frame=25474 fps=499 q=-0.0 size=N/A time=00:17:42.47 bitrate=N/A speed=20.8x    frame=25726 fps=499 q=-0.0 size=N/A time=00:17:52.98 bitrate=N/A speed=20.8x    frame=25949 fps=498 q=-0.0 size=N/A time=00:18:02.28 bitrate=N/A speed=20.8x    frame=26224 fps=498 q=-0.0 size=N/A time=00:18:13.75 bitrate=N/A speed=20.8x    frame=26487 fps=498 q=-0.0 size=N/A time=00:18:24.72 bitrate=N/A speed=20.8x    frame=26757 fps=498 q=-0.0 size=N/A time=00:18:35.98 bitrate=N/A speed=20.8x    frame=27026 fps=499 q=-0.0 size=N/A time=00:18:47.20 bitrate=N/A speed=20.8x    frame=27288 fps=499 q=-0.0 size=N/A time=00:18:58.13 bitrate=N/A speed=20.8x    frame=27552 fps=499 q=-0.0 size=N/A time=00:19:09.14 bitrate=N/A speed=20.8x    frame=27828 fps=499 q=-0.0 size=N/A time=00:19:20.65 bitrate=N/A speed=20.8x    frame=28085 fps=499 q=-0.0 size=N/A time=00:19:31.37 bitrate=N/A speed=20.8x    frame=28350 fps=499 q=-0.0 size=N/A time=00:19:42.43 bitrate=N/A speed=20.8x    frame=28613 fps=499 q=-0.0 size=N/A time=00:19:53.40 bitrate=N/A speed=20.8x    frame=28880 fps=500 q=-0.0 size=N/A time=00:20:04.53 bitrate=N/A speed=20.8x    frame=29144 fps=500 q=-0.0 size=N/A time=00:20:15.54 bitrate=N/A speed=20.8x    frame=29387 fps=499 q=-0.0 size=N/A time=00:20:25.68 bitrate=N/A speed=20.8x    frame=29650 fps=499 q=-0.0 size=N/A time=00:20:36.65 bitrate=N/A speed=20.8x    frame=29879 fps=499 q=-0.0 size=N/A time=00:20:46.20 bitrate=N/A speed=20.8x    frame=30128 fps=499 q=-0.0 size=N/A time=00:20:56.58 bitrate=N/A speed=20.8x    frame=30367 fps=499 q=-0.0 size=N/A time=00:21:06.55 bitrate=N/A speed=20.8x    frame=30629 fps=499 q=-0.0 size=N/A time=00:21:17.48 bitrate=N/A speed=20.8x    frame=30848 fps=498 q=-0.0 size=N/A time=00:21:26.61 bitrate=N/A speed=20.8x    frame=31099 fps=498 q=-0.0 size=N/A time=00:21:37.08 bitrate=N/A speed=20.8x    frame=31310 fps=497 q=-0.0 size=N/A time=00:21:45.88 bitrate=N/A speed=20.7x    frame=31480 fps=496 q=-0.0 size=N/A time=00:21:52.97 bitrate=N/A speed=20.7x    frame=31644 fps=494 q=-0.0 size=N/A time=00:21:59.81 bitrate=N/A speed=20.6x    frame=31815 fps=493 q=-0.0 size=N/A time=00:22:06.95 bitrate=N/A speed=20.6x    frame=31980 fps=492 q=-0.0 size=N/A time=00:22:13.83 bitrate=N/A speed=20.5x    frame=32141 fps=490 q=-0.0 size=N/A time=00:22:20.54 bitrate=N/A speed=20.5x    frame=32298 fps=489 q=-0.0 size=N/A time=00:22:27.09 bitrate=N/A speed=20.4x    frame=32463 fps=488 q=-0.0 size=N/A time=00:22:33.97 bitrate=N/A speed=20.3x    frame=32632 fps=486 q=-0.0 size=N/A time=00:22:41.02 bitrate=N/A speed=20.3x    frame=32820 fps=485 q=-0.0 size=N/A time=00:22:48.86 bitrate=N/A speed=20.2x    frame=33037 fps=485 q=-0.0 size=N/A time=00:22:57.91 bitrate=N/A speed=20.2x    frame=33253 fps=484 q=-0.0 size=N/A time=00:23:06.92 bitrate=N/A speed=20.2x    [Parsed_psnr_10 @ 00000217d8a61000] PSNR y:48.602020 u:51.496419 v:51.797820 average:49.400251 min:37.687346 max:inf
[out#0/null @ 00000217cc3c06c0] video:14363KiB audio:261432KiB subtitle:0KiB other streams:0KiB global headers:0KiB muxing overhead: unknown
frame=33427 fps=484 q=-0.0 Lsize=N/A time=00:23:14.18 bitrate=N/A speed=20.2x    
